<svg xmlns="http://www.w3.org/2000/svg" xmlns:xlink="http://www.w3.org/1999/xlink" width="500" zoomAndPan="magnify" viewBox="0 0 375 374.999991" height="500" preserveAspectRatio="xMidYMid meet" version="1.0"><path fill="#8aa2d4" d="M 156.257812 121.199219 C 195.804688 144.1875 236.195312 166.019531 274.519531 190.820312 C 297.984375 206.011719 322.5625 219.761719 345.296875 235.625 C 357.929688 244.429688 365.777344 250.972656 348.734375 273.753906 L 348.753906 273.703125 C 345.910156 278.621094 338.125 291.5625 335.53125 295.878906 C 322.515625 317.460938 317.539062 316.820312 292.476562 306.675781 C 229.96875 281.378906 173.121094 243.324219 113.828125 211.242188 C 92.34375 199.617188 42.632812 167.875 22.550781 156.402344 C -0.0117188 143.507812 46.28125 85.378906 62.851562 69.1875 C 68.855469 63.324219 125.066406 103.070312 156.257812 121.199219 Z M 156.257812 121.199219 " fill-opacity="1" fill-rule="nonzero"/><path fill="#8aa2d4" d="M 218.742188 121.199219 C 179.195312 144.1875 138.804688 166.019531 100.480469 190.820312 C 77.015625 206.011719 52.4375 219.761719 29.699219 235.625 C 17.070312 244.429688 9.222656 250.972656 26.265625 273.753906 L 26.246094 273.703125 C 29.085938 278.621094 36.875 291.5625 39.46875 295.878906 C 52.488281 317.460938 57.460938 316.820312 82.527344 306.675781 C 145.03125 281.378906 201.882812 243.324219 261.171875 211.242188 C 282.65625 199.617188 332.371094 167.875 352.449219 156.402344 C 375.011719 143.507812 328.71875 85.378906 312.148438 69.1875 C 306.148438 63.324219 249.933594 103.070312 218.742188 121.199219 Z M 218.742188 121.199219 " fill-opacity="1" fill-rule="nonzero"/><path fill="#8aa2d4" d="M 139.195312 126.644531 C 139.425781 172.417969 138.238281 218.351562 140.652344 263.964844 C 142.136719 291.898438 141.8125 320.078125 144.242188 347.714844 C 145.585938 363.0625 147.34375 373.132812 175.570312 369.675781 L 175.515625 369.664062 C 181.191406 369.644531 196.28125 369.328125 201.308594 369.226562 C 226.492188 368.667969 228.414062 364.03125 232.101562 337.222656 C 241.292969 270.367188 236.617188 202.070312 238.335938 134.625 C 238.957031 110.1875 236.195312 51.234375 236.253906 28.089844 C 236.3125 2.085938 162.898438 13.335938 140.621094 19.660156 C 132.550781 21.957031 139.011719 90.542969 139.195312 126.644531 Z M 139.195312 126.644531 " fill-opacity="1" fill-rule="nonzero"/><path fill="#ffffff" d="M 181.839844 182.992188 C 181.863281 205.023438 181.726562 227.128906 182.007812 249.089844 C 182.183594 262.53125 182.144531 276.097656 182.429688 289.398438 C 182.589844 296.785156 182.792969 301.632812 186.101562 299.96875 L 186.09375 299.964844 C 186.761719 299.953125 188.527344 299.800781 189.117188 299.753906 C 192.070312 299.480469 192.292969 297.253906 192.722656 284.347656 C 193.804688 252.167969 193.257812 219.296875 193.457031 186.832031 C 193.53125 175.070312 193.207031 146.695312 193.214844 135.554688 C 193.21875 123.039062 184.617188 128.453125 182.007812 131.496094 C 181.0625 132.605469 181.816406 165.617188 181.839844 182.992188 Z M 181.839844 182.992188 " fill-opacity="1" fill-rule="nonzero"/><path fill="#ffffff" d="M 201.988281 92.15625 C 200.960938 87.257812 195.117188 83.085938 189.855469 81.679688 C 185.585938 80.535156 180.625 81.308594 177.265625 84.386719 C 168.078125 92.804688 173.609375 109.164062 186.136719 110.121094 C 196.078125 110.878906 204.015625 101.792969 201.988281 92.15625 Z M 201.988281 92.15625 " fill-opacity="1" fill-rule="nonzero"/><path fill="#414370" d="M 178.25 191.753906 C 177.785156 191.753906 177.324219 191.578125 176.964844 191.230469 C 162.015625 176.632812 156.089844 154.414062 162.875 138.402344 C 168.761719 124.5 182.929688 117.167969 202.8125 117.746094 C 203.828125 117.777344 204.625 118.625 204.59375 119.640625 C 204.566406 120.65625 203.703125 121.460938 202.703125 121.425781 C 184.445312 120.875 171.515625 127.433594 166.257812 139.839844 C 160.042969 154.511719 165.625 175.015625 179.53125 188.597656 C 180.261719 189.308594 180.273438 190.472656 179.566406 191.199219 C 179.203125 191.566406 178.726562 191.753906 178.25 191.753906 Z M 178.25 191.753906 " fill-opacity="1" fill-rule="nonzero"/><path fill="#414370" d="M 179.882812 298.882812 C 179.675781 298.882812 179.464844 298.847656 179.257812 298.773438 C 172.933594 296.492188 169.351562 293.0625 168.605469 288.582031 C 166.695312 277.125 184.222656 263.046875 193.636719 255.484375 L 194.867188 254.496094 C 205.011719 246.300781 209.953125 239.144531 210.414062 231.972656 C 210.902344 224.414062 206.503906 216.375 195.710938 205.089844 C 195.011719 204.355469 195.035156 203.191406 195.769531 202.488281 C 196.5 201.785156 197.664062 201.808594 198.367188 202.542969 C 209.941406 214.648438 214.640625 223.519531 214.085938 232.210938 C 213.550781 240.480469 208.179688 248.472656 197.175781 257.359375 L 195.9375 258.355469 C 188.378906 264.429688 170.675781 278.648438 172.230469 287.976562 C 172.742188 291.046875 175.527344 293.515625 180.503906 295.308594 C 181.460938 295.65625 181.957031 296.707031 181.609375 297.664062 C 181.339844 298.417969 180.632812 298.882812 179.882812 298.882812 Z M 179.882812 298.882812 " fill-opacity="1" fill-rule="nonzero"/><path fill="#414370" d="M 34.457031 146.777344 C 34.425781 146.777344 34.390625 146.777344 34.359375 146.773438 C 33.34375 146.722656 32.566406 145.855469 32.617188 144.84375 C 33.871094 120.78125 49.289062 102.542969 62.890625 86.453125 C 65.019531 83.933594 67.03125 81.554688 68.976562 79.167969 C 69.617188 78.382812 70.78125 78.265625 71.5625 78.910156 C 72.351562 79.550781 72.464844 80.710938 71.824219 81.5 C 69.859375 83.910156 67.835938 86.300781 65.695312 88.832031 C 52.46875 104.476562 37.480469 122.210938 36.289062 145.035156 C 36.238281 146.015625 35.425781 146.777344 34.457031 146.777344 Z M 34.457031 146.777344 " fill-opacity="1" fill-rule="nonzero"/><path fill="#414370" d="M 310.59375 298.066406 C 309.617188 298.066406 308.804688 297.292969 308.761719 296.304688 C 308.714844 295.289062 309.5 294.429688 310.515625 294.386719 C 317.1875 294.09375 326.390625 273.960938 331.890625 261.933594 C 334.472656 256.285156 336.703125 251.410156 338.453125 248.628906 C 338.996094 247.769531 340.132812 247.515625 340.988281 248.054688 C 341.847656 248.597656 342.105469 249.734375 341.5625 250.59375 C 339.941406 253.164062 337.761719 257.9375 335.234375 263.464844 C 326.371094 282.847656 318.9375 297.703125 310.675781 298.0625 C 310.648438 298.0625 310.621094 298.066406 310.59375 298.066406 Z M 310.59375 298.066406 " fill-opacity="1" fill-rule="nonzero"/><path fill="#414370" d="M 162.722656 360.214844 C 161.707031 360.214844 160.882812 359.390625 160.882812 358.375 C 160.882812 357.359375 161.707031 356.535156 162.722656 356.535156 C 181.617188 356.535156 198.390625 355.738281 214 354.089844 C 215.019531 353.984375 215.914062 354.71875 216.019531 355.730469 C 216.125 356.738281 215.394531 357.644531 214.386719 357.75 C 198.648438 359.410156 181.746094 360.214844 162.722656 360.214844 Z M 162.722656 360.214844 " fill-opacity="1" fill-rule="nonzero"/><path fill="#414370" d="M 346.339844 147.1875 C 345.371094 147.1875 344.5625 146.433594 344.503906 145.457031 C 343.628906 130.882812 324.53125 96.773438 307.863281 84.257812 C 307.050781 83.648438 306.886719 82.496094 307.492188 81.683594 C 308.105469 80.871094 309.257812 80.707031 310.070312 81.316406 C 326.5 93.652344 347.15625 128.300781 348.175781 145.234375 C 348.238281 146.25 347.464844 147.121094 346.449219 147.183594 C 346.410156 147.183594 346.375 147.1875 346.339844 147.1875 Z M 346.339844 147.1875 " fill-opacity="1" fill-rule="nonzero"/><path fill="#414370" d="M 149.652344 33.109375 C 148.640625 33.109375 147.816406 32.289062 147.8125 31.277344 C 147.808594 30.257812 148.628906 29.433594 149.644531 29.429688 C 157.121094 29.398438 164.996094 28.109375 173.332031 26.746094 C 189.261719 24.144531 205.734375 21.453125 219.863281 27.960938 C 220.785156 28.386719 221.1875 29.480469 220.761719 30.402344 C 220.339844 31.328125 219.246094 31.730469 218.324219 31.304688 C 205.214844 25.265625 189.308594 27.867188 173.925781 30.378906 C 165.816406 31.707031 157.425781 33.078125 149.65625 33.109375 C 149.65625 33.109375 149.652344 33.109375 149.652344 33.109375 Z M 149.652344 33.109375 " fill-opacity="1" fill-rule="nonzero"/><path fill="#414370" d="M 63.867188 298.882812 C 63.667969 298.882812 63.46875 298.851562 63.269531 298.78125 C 54.617188 295.800781 29.792969 258.835938 26.988281 250.179688 C 26.671875 249.214844 27.203125 248.175781 28.167969 247.863281 C 29.132812 247.546875 30.167969 248.078125 30.484375 249.042969 C 33.214844 257.460938 57.613281 292.941406 64.464844 295.300781 C 65.425781 295.632812 65.9375 296.679688 65.605469 297.640625 C 65.34375 298.402344 64.628906 298.882812 63.867188 298.882812 Z M 63.867188 298.882812 " fill-opacity="1" fill-rule="nonzero"/></svg>