<svg xmlns="http://www.w3.org/2000/svg" xmlns:xlink="http://www.w3.org/1999/xlink" width="200" zoomAndPan="magnify" viewBox="0 0 150 74.999997" height="100" preserveAspectRatio="xMidYMid meet" version="1.0"><defs><g/></defs><g fill="#ffffff" fill-opacity="1"><g transform="translate(24.672777, 46.922961)"><g><path d="M 13.453125 0 L 13.40625 -7.109375 L 9.96875 -1.328125 L 8.28125 -1.328125 L 4.84375 -6.921875 L 4.84375 0 L 1.34375 0 L 1.34375 -13.40625 L 4.46875 -13.40625 L 9.171875 -5.671875 L 13.765625 -13.40625 L 16.890625 -13.40625 L 16.9375 0 Z M 13.453125 0 "/></g></g></g><g fill="#ffffff" fill-opacity="1"><g transform="translate(43.694489, 46.922961)"><g><path d="M 12.109375 -2.9375 L 12.109375 0 L 1.34375 0 L 1.34375 -13.40625 L 11.859375 -13.40625 L 11.859375 -10.484375 L 5.09375 -10.484375 L 5.09375 -8.21875 L 11.046875 -8.21875 L 11.046875 -5.390625 L 5.09375 -5.390625 L 5.09375 -2.9375 Z M 7.296875 -17.40625 L 10.9375 -17.40625 L 7.34375 -14.5 L 4.734375 -14.5 Z M 7.296875 -17.40625 "/></g></g></g><g fill="#ffffff" fill-opacity="1"><g transform="translate(57.314385, 46.922961)"><g><path d="M 1.34375 -13.40625 L 7.6875 -13.40625 C 9.15625 -13.40625 10.457031 -13.128906 11.59375 -12.578125 C 12.726562 -12.035156 13.609375 -11.257812 14.234375 -10.25 C 14.859375 -9.238281 15.171875 -8.054688 15.171875 -6.703125 C 15.171875 -5.347656 14.859375 -4.164062 14.234375 -3.15625 C 13.609375 -2.144531 12.726562 -1.363281 11.59375 -0.8125 C 10.457031 -0.269531 9.15625 0 7.6875 0 L 1.34375 0 Z M 7.53125 -3.03125 C 8.675781 -3.03125 9.597656 -3.351562 10.296875 -4 C 10.992188 -4.65625 11.34375 -5.554688 11.34375 -6.703125 C 11.34375 -7.847656 10.992188 -8.742188 10.296875 -9.390625 C 9.597656 -10.046875 8.675781 -10.375 7.53125 -10.375 L 5.140625 -10.375 L 5.140625 -3.03125 Z M 7.53125 -3.03125 "/></g></g></g><g fill="#ffffff" fill-opacity="1"><g transform="translate(73.884209, 46.922961)"><g><path d="M 1.34375 -13.40625 L 5.140625 -13.40625 L 5.140625 0 L 1.34375 0 Z M 1.34375 -13.40625 "/></g></g></g><g fill="#ffffff" fill-opacity="1"><g transform="translate(81.12535, 46.922961)"><g><path d="M 8.03125 0.265625 C 6.625 0.265625 5.359375 -0.03125 4.234375 -0.625 C 3.117188 -1.21875 2.242188 -2.039062 1.609375 -3.09375 C 0.972656 -4.15625 0.65625 -5.359375 0.65625 -6.703125 C 0.65625 -8.046875 0.972656 -9.242188 1.609375 -10.296875 C 2.242188 -11.359375 3.117188 -12.1875 4.234375 -12.78125 C 5.359375 -13.375 6.625 -13.671875 8.03125 -13.671875 C 9.25 -13.671875 10.347656 -13.453125 11.328125 -13.015625 C 12.316406 -12.585938 13.140625 -11.96875 13.796875 -11.15625 L 11.375 -8.96875 C 10.507812 -10.007812 9.457031 -10.53125 8.21875 -10.53125 C 7.488281 -10.53125 6.835938 -10.367188 6.265625 -10.046875 C 5.703125 -9.734375 5.265625 -9.285156 4.953125 -8.703125 C 4.640625 -8.117188 4.484375 -7.453125 4.484375 -6.703125 C 4.484375 -5.953125 4.640625 -5.285156 4.953125 -4.703125 C 5.265625 -4.117188 5.703125 -3.664062 6.265625 -3.34375 C 6.835938 -3.03125 7.488281 -2.875 8.21875 -2.875 C 9.457031 -2.875 10.507812 -3.394531 11.375 -4.4375 L 13.796875 -2.265625 C 13.140625 -1.441406 12.316406 -0.8125 11.328125 -0.375 C 10.347656 0.0507812 9.25 0.265625 8.03125 0.265625 Z M 8.03125 0.265625 "/></g></g></g><g fill="#ffffff" fill-opacity="1"><g transform="translate(96.009494, 46.922961)"><g><path d="M 8.109375 0.265625 C 6.691406 0.265625 5.414062 -0.03125 4.28125 -0.625 C 3.15625 -1.226562 2.269531 -2.0625 1.625 -3.125 C 0.976562 -4.1875 0.65625 -5.378906 0.65625 -6.703125 C 0.65625 -8.035156 0.976562 -9.226562 1.625 -10.28125 C 2.269531 -11.34375 3.15625 -12.171875 4.28125 -12.765625 C 5.414062 -13.367188 6.691406 -13.671875 8.109375 -13.671875 C 9.523438 -13.671875 10.796875 -13.367188 11.921875 -12.765625 C 13.054688 -12.171875 13.945312 -11.34375 14.59375 -10.28125 C 15.238281 -9.226562 15.5625 -8.035156 15.5625 -6.703125 C 15.5625 -5.378906 15.238281 -4.1875 14.59375 -3.125 C 13.945312 -2.0625 13.054688 -1.226562 11.921875 -0.625 C 10.796875 -0.03125 9.523438 0.265625 8.109375 0.265625 Z M 8.109375 -2.875 C 8.785156 -2.875 9.394531 -3.03125 9.9375 -3.34375 C 10.488281 -3.664062 10.921875 -4.117188 11.234375 -4.703125 C 11.554688 -5.285156 11.71875 -5.953125 11.71875 -6.703125 C 11.71875 -7.453125 11.554688 -8.117188 11.234375 -8.703125 C 10.921875 -9.285156 10.488281 -9.734375 9.9375 -10.046875 C 9.394531 -10.367188 8.785156 -10.53125 8.109375 -10.53125 C 7.429688 -10.53125 6.816406 -10.367188 6.265625 -10.046875 C 5.710938 -9.734375 5.273438 -9.285156 4.953125 -8.703125 C 4.640625 -8.117188 4.484375 -7.453125 4.484375 -6.703125 C 4.484375 -5.953125 4.640625 -5.285156 4.953125 -4.703125 C 5.273438 -4.117188 5.710938 -3.664062 6.265625 -3.34375 C 6.816406 -3.03125 7.429688 -2.875 8.109375 -2.875 Z M 8.109375 -2.875 "/></g></g></g><g fill="#ffffff" fill-opacity="1"><g transform="translate(112.962415, 46.922961)"><g><path d="M 6.046875 0.265625 C 4.960938 0.265625 3.910156 0.132812 2.890625 -0.125 C 1.867188 -0.394531 1.039062 -0.753906 0.40625 -1.203125 L 1.640625 -4 C 2.242188 -3.601562 2.941406 -3.285156 3.734375 -3.046875 C 4.523438 -2.804688 5.304688 -2.6875 6.078125 -2.6875 C 7.523438 -2.6875 8.25 -3.050781 8.25 -3.78125 C 8.25 -4.15625 8.039062 -4.4375 7.625 -4.625 C 7.21875 -4.8125 6.550781 -5.003906 5.625 -5.203125 C 4.625 -5.421875 3.785156 -5.65625 3.109375 -5.90625 C 2.429688 -6.15625 1.847656 -6.554688 1.359375 -7.109375 C 0.867188 -7.660156 0.625 -8.398438 0.625 -9.328125 C 0.625 -10.148438 0.847656 -10.890625 1.296875 -11.546875 C 1.742188 -12.203125 2.410156 -12.71875 3.296875 -13.09375 C 4.191406 -13.476562 5.285156 -13.671875 6.578125 -13.671875 C 7.453125 -13.671875 8.316406 -13.570312 9.171875 -13.375 C 10.023438 -13.175781 10.78125 -12.890625 11.4375 -12.515625 L 10.265625 -9.6875 C 8.992188 -10.382812 7.753906 -10.734375 6.546875 -10.734375 C 5.796875 -10.734375 5.25 -10.617188 4.90625 -10.390625 C 4.5625 -10.171875 4.390625 -9.878906 4.390625 -9.515625 C 4.390625 -9.160156 4.59375 -8.894531 5 -8.71875 C 5.40625 -8.539062 6.0625 -8.351562 6.96875 -8.15625 C 7.988281 -7.9375 8.832031 -7.703125 9.5 -7.453125 C 10.175781 -7.210938 10.757812 -6.816406 11.25 -6.265625 C 11.738281 -5.722656 11.984375 -4.988281 11.984375 -4.0625 C 11.984375 -3.257812 11.757812 -2.53125 11.3125 -1.875 C 10.875 -1.226562 10.207031 -0.707031 9.3125 -0.3125 C 8.414062 0.0703125 7.328125 0.265625 6.046875 0.265625 Z M 6.046875 0.265625 "/></g></g></g><g fill="#ffffff" fill-opacity="1"><g transform="translate(43.16717, 25.458908)"><g><path d="M 0.25 -0.3125 C 0.332031 -0.320312 0.414062 -0.34375 0.5 -0.375 C 0.59375 -0.414062 0.65625 -0.457031 0.6875 -0.5 L 0.6875 -4.546875 C 0.5625 -4.648438 0.410156 -4.722656 0.234375 -4.765625 L 0.25 -5.046875 L 3.859375 -5.046875 L 3.921875 -3.796875 C 3.816406 -3.765625 3.71875 -3.75 3.625 -3.75 C 3.539062 -3.75 3.453125 -3.757812 3.359375 -3.78125 C 3.316406 -3.96875 3.269531 -4.125 3.21875 -4.25 C 3.164062 -4.375 3.101562 -4.484375 3.03125 -4.578125 L 1.796875 -4.578125 L 1.796875 -2.796875 L 2.5 -2.84375 C 2.59375 -2.851562 2.675781 -2.898438 2.75 -2.984375 C 2.832031 -3.078125 2.890625 -3.195312 2.921875 -3.34375 L 3.3125 -3.34375 L 3.3125 -1.78125 L 2.921875 -1.78125 C 2.859375 -1.988281 2.789062 -2.128906 2.71875 -2.203125 C 2.65625 -2.285156 2.582031 -2.332031 2.5 -2.34375 L 1.796875 -2.40625 L 1.796875 -0.53125 C 1.910156 -0.425781 2.097656 -0.347656 2.359375 -0.296875 L 2.3125 0 L 0.234375 0 Z M 0.25 -0.3125 "/></g></g></g><g fill="#ffffff" fill-opacity="1"><g transform="translate(50.206144, 25.458908)"><g><path d="M 0.25 -0.3125 C 0.351562 -0.332031 0.4375 -0.359375 0.5 -0.390625 C 0.5625 -0.421875 0.625 -0.46875 0.6875 -0.53125 L 0.6875 -4.5 C 0.59375 -4.59375 0.441406 -4.675781 0.234375 -4.75 L 0.25 -5.046875 L 2.390625 -5.046875 C 3.679688 -5.046875 4.328125 -4.601562 4.328125 -3.71875 C 4.328125 -3.394531 4.242188 -3.125 4.078125 -2.90625 C 3.910156 -2.6875 3.664062 -2.523438 3.34375 -2.421875 C 3.5 -2.304688 3.628906 -2.140625 3.734375 -1.921875 L 4.296875 -0.578125 C 4.328125 -0.503906 4.378906 -0.445312 4.453125 -0.40625 C 4.535156 -0.375 4.640625 -0.34375 4.765625 -0.3125 L 4.71875 0 L 3.328125 0 L 2.59375 -1.96875 C 2.53125 -2.164062 2.378906 -2.265625 2.140625 -2.265625 L 1.796875 -2.28125 L 1.796875 -0.53125 C 1.898438 -0.425781 2.085938 -0.347656 2.359375 -0.296875 L 2.3125 0 L 0.234375 0 Z M 2.296875 -2.75 C 2.867188 -2.75 3.15625 -3.066406 3.15625 -3.703125 C 3.15625 -3.984375 3.078125 -4.195312 2.921875 -4.34375 C 2.773438 -4.5 2.566406 -4.578125 2.296875 -4.578125 C 2.085938 -4.578125 1.921875 -4.566406 1.796875 -4.546875 L 1.796875 -2.75 Z M 2.296875 -2.75 "/></g></g></g><g fill="#ffffff" fill-opacity="1"><g transform="translate(58.046546, 25.458908)"><g><path d="M 2.453125 0.078125 C 1.703125 0.078125 1.132812 -0.140625 0.75 -0.578125 C 0.375 -1.023438 0.1875 -1.675781 0.1875 -2.53125 C 0.1875 -3.375 0.375 -4.015625 0.75 -4.453125 C 1.132812 -4.898438 1.703125 -5.125 2.453125 -5.125 C 3.191406 -5.125 3.75 -4.898438 4.125 -4.453125 C 4.507812 -4.015625 4.703125 -3.375 4.703125 -2.53125 C 4.703125 -1.675781 4.507812 -1.023438 4.125 -0.578125 C 3.75 -0.140625 3.191406 0.078125 2.453125 0.078125 Z M 2.453125 -0.359375 C 2.804688 -0.359375 3.0625 -0.523438 3.21875 -0.859375 C 3.375 -1.203125 3.453125 -1.757812 3.453125 -2.53125 C 3.453125 -3.300781 3.375 -3.851562 3.21875 -4.1875 C 3.0625 -4.519531 2.804688 -4.6875 2.453125 -4.6875 C 2.085938 -4.6875 1.828125 -4.519531 1.671875 -4.1875 C 1.515625 -3.851562 1.4375 -3.300781 1.4375 -2.53125 C 1.4375 -1.757812 1.515625 -1.203125 1.671875 -0.859375 C 1.828125 -0.523438 2.085938 -0.359375 2.453125 -0.359375 Z M 2.453125 -0.359375 "/></g></g></g><g fill="#ffffff" fill-opacity="1"><g transform="translate(65.939873, 25.458908)"><g><path d="M 0.25 -0.3125 C 0.351562 -0.332031 0.429688 -0.359375 0.484375 -0.390625 C 0.546875 -0.421875 0.613281 -0.46875 0.6875 -0.53125 L 0.6875 -4.5 C 0.582031 -4.59375 0.429688 -4.675781 0.234375 -4.75 L 0.25 -5.046875 L 1.75 -5.046875 L 3.828125 -1.390625 L 3.828125 -4.5 C 3.753906 -4.570312 3.679688 -4.625 3.609375 -4.65625 C 3.535156 -4.6875 3.4375 -4.710938 3.3125 -4.734375 L 3.34375 -5.046875 L 5 -5.046875 L 4.953125 -4.75 C 4.753906 -4.6875 4.597656 -4.601562 4.484375 -4.5 L 4.484375 0 L 3.34375 0 L 1.34375 -3.484375 L 1.34375 -0.53125 C 1.457031 -0.425781 1.644531 -0.347656 1.90625 -0.296875 L 1.859375 0 L 0.234375 0 Z M 0.25 -0.3125 "/></g></g></g><g fill="#ffffff" fill-opacity="1"><g transform="translate(74.128065, 25.458908)"><g><path d="M 1.125 -0.3125 C 1.332031 -0.34375 1.507812 -0.414062 1.65625 -0.53125 L 1.65625 -4.578125 C 1.488281 -4.566406 1.285156 -4.550781 1.046875 -4.53125 L 0.90625 -4.53125 C 0.820312 -4.414062 0.753906 -4.273438 0.703125 -4.109375 C 0.648438 -3.953125 0.617188 -3.800781 0.609375 -3.65625 C 0.515625 -3.632812 0.425781 -3.625 0.34375 -3.625 C 0.257812 -3.625 0.175781 -3.632812 0.09375 -3.65625 L 0.09375 -5.078125 C 0.863281 -5.054688 1.570312 -5.046875 2.21875 -5.046875 C 2.601562 -5.046875 3.003906 -5.046875 3.421875 -5.046875 C 3.835938 -5.054688 4.144531 -5.066406 4.34375 -5.078125 L 4.34375 -3.65625 C 4.269531 -3.632812 4.1875 -3.625 4.09375 -3.625 C 4.007812 -3.625 3.921875 -3.632812 3.828125 -3.65625 C 3.804688 -3.820312 3.769531 -3.976562 3.71875 -4.125 C 3.675781 -4.28125 3.617188 -4.410156 3.546875 -4.515625 C 3.296875 -4.554688 3.039062 -4.578125 2.78125 -4.578125 L 2.78125 -0.53125 C 2.882812 -0.4375 3.070312 -0.363281 3.34375 -0.3125 L 3.296875 0 L 1.09375 0 Z M 1.125 -0.3125 "/></g></g></g><g fill="#ffffff" fill-opacity="1"><g transform="translate(81.567754, 25.458908)"><g><path d="M 0.25 -0.3125 C 0.332031 -0.320312 0.414062 -0.34375 0.5 -0.375 C 0.59375 -0.414062 0.65625 -0.457031 0.6875 -0.5 L 0.6875 -4.546875 C 0.5625 -4.648438 0.410156 -4.722656 0.234375 -4.765625 L 0.25 -5.046875 L 3.921875 -5.046875 L 3.953125 -3.796875 C 3.835938 -3.765625 3.734375 -3.75 3.640625 -3.75 C 3.585938 -3.75 3.503906 -3.757812 3.390625 -3.78125 C 3.347656 -3.96875 3.300781 -4.125 3.25 -4.25 C 3.207031 -4.375 3.148438 -4.484375 3.078125 -4.578125 L 1.796875 -4.578125 L 1.796875 -2.796875 L 2.5 -2.84375 C 2.59375 -2.851562 2.675781 -2.898438 2.75 -2.984375 C 2.832031 -3.078125 2.890625 -3.195312 2.921875 -3.34375 L 3.3125 -3.34375 L 3.3125 -1.78125 L 2.921875 -1.78125 C 2.859375 -1.988281 2.789062 -2.128906 2.71875 -2.203125 C 2.65625 -2.285156 2.582031 -2.332031 2.5 -2.34375 L 1.796875 -2.40625 L 1.796875 -0.46875 L 3.125 -0.46875 C 3.28125 -0.707031 3.398438 -1.023438 3.484375 -1.421875 C 3.585938 -1.441406 3.6875 -1.453125 3.78125 -1.453125 C 3.875 -1.453125 3.957031 -1.441406 4.03125 -1.421875 L 3.96875 0 L 0.234375 0 Z M 0.25 -0.3125 "/></g></g></g><g fill="#ffffff" fill-opacity="1"><g transform="translate(88.795745, 25.458908)"><g><path d="M 0.25 -0.3125 C 0.476562 -0.34375 0.660156 -0.414062 0.796875 -0.53125 L 0.796875 -4.5 C 0.742188 -4.550781 0.660156 -4.597656 0.546875 -4.640625 C 0.441406 -4.691406 0.335938 -4.722656 0.234375 -4.734375 L 0.265625 -5.046875 L 2.484375 -5.046875 L 2.4375 -4.734375 C 2.3125 -4.710938 2.210938 -4.6875 2.140625 -4.65625 C 2.066406 -4.625 1.988281 -4.570312 1.90625 -4.5 L 1.90625 -0.53125 C 2.007812 -0.4375 2.203125 -0.363281 2.484375 -0.3125 L 2.421875 0 L 0.234375 0 Z M 0.25 -0.3125 "/></g></g></g><g fill="#ffffff" fill-opacity="1"><g transform="translate(94.504039, 25.458908)"><g><path d="M 0.25 -0.3125 C 0.351562 -0.332031 0.4375 -0.359375 0.5 -0.390625 C 0.5625 -0.421875 0.625 -0.46875 0.6875 -0.53125 L 0.6875 -4.5 C 0.59375 -4.59375 0.441406 -4.675781 0.234375 -4.75 L 0.25 -5.046875 L 2.390625 -5.046875 C 3.679688 -5.046875 4.328125 -4.601562 4.328125 -3.71875 C 4.328125 -3.394531 4.242188 -3.125 4.078125 -2.90625 C 3.910156 -2.6875 3.664062 -2.523438 3.34375 -2.421875 C 3.5 -2.304688 3.628906 -2.140625 3.734375 -1.921875 L 4.296875 -0.578125 C 4.328125 -0.503906 4.378906 -0.445312 4.453125 -0.40625 C 4.535156 -0.375 4.640625 -0.34375 4.765625 -0.3125 L 4.71875 0 L 3.328125 0 L 2.59375 -1.96875 C 2.53125 -2.164062 2.378906 -2.265625 2.140625 -2.265625 L 1.796875 -2.28125 L 1.796875 -0.53125 C 1.898438 -0.425781 2.085938 -0.347656 2.359375 -0.296875 L 2.3125 0 L 0.234375 0 Z M 2.296875 -2.75 C 2.867188 -2.75 3.15625 -3.066406 3.15625 -3.703125 C 3.15625 -3.984375 3.078125 -4.195312 2.921875 -4.34375 C 2.773438 -4.5 2.566406 -4.578125 2.296875 -4.578125 C 2.085938 -4.578125 1.921875 -4.566406 1.796875 -4.546875 L 1.796875 -2.75 Z M 2.296875 -2.75 "/></g></g></g><g fill="#ffffff" fill-opacity="1"><g transform="translate(102.344442, 25.458908)"><g><path d="M 0.015625 -0.296875 C 0.140625 -0.304688 0.242188 -0.332031 0.328125 -0.375 C 0.410156 -0.414062 0.460938 -0.46875 0.484375 -0.53125 L 2.09375 -5.046875 L 2.875 -5.046875 L 4.484375 -0.609375 C 4.515625 -0.523438 4.566406 -0.457031 4.640625 -0.40625 C 4.710938 -0.363281 4.816406 -0.328125 4.953125 -0.296875 L 4.921875 0 L 2.84375 0 L 2.890625 -0.296875 C 3.128906 -0.335938 3.28125 -0.398438 3.34375 -0.484375 L 3 -1.578125 L 1.4375 -1.578125 L 1.078125 -0.53125 C 1.210938 -0.414062 1.425781 -0.335938 1.71875 -0.296875 L 1.671875 0 L -0.03125 0 Z M 2.828125 -2.046875 L 2.25 -3.859375 L 1.609375 -2.046875 Z M 2.828125 -2.046875 "/></g></g></g><path stroke-linecap="round" transform="matrix(0.750265, 0, 0, 0.75, 7.500002, 53.983168)" fill="none" stroke-linejoin="miter" d="M 1.499467 1.501609 L 175.438038 1.501609 " stroke="#fca31f" stroke-width="3" stroke-opacity="1" stroke-miterlimit="4"/><path stroke-linecap="round" transform="matrix(0.74432, 0, 0, 0.75, 7.500002, 20.232725)" fill="none" stroke-linejoin="miter" d="M 1.500947 1.5022 L 41.832423 1.5022 " stroke="#fca31f" stroke-width="3" stroke-opacity="1" stroke-miterlimit="4"/><path stroke-linecap="round" transform="matrix(0.756203, 0, 0, 0.75, 110.449924, 20.767717)" fill="none" stroke-linejoin="miter" d="M 1.50226 1.502419 L 38.172921 1.502419 " stroke="#fca31f" stroke-width="3" stroke-opacity="1" stroke-miterlimit="4"/></svg>